<svg width="99" height="83" viewBox="0 0 99 83" fill="none" xmlns="http://www.w3.org/2000/svg">
<path fill-rule="evenodd" clip-rule="evenodd" d="M71.8348 9.27174C76.6373 9.51646 80.4547 11.9315 84.2721 14.6433C96.7915 23.5486 100.979 37.3658 92.3998 50.9435C79.0594 71.9993 47.9863 85.7799 23.8915 79.4201C18.5553 78.0184 11.3309 76.7831 6.03582 69.9383C1.11013 63.5741 1.31537 56.0082 3.57298 49.0037C5.87163 41.8219 10.3048 35.2121 13.8348 30.9633C29.2687 12.4258 60.1774 -4.42223 88.1307 4.45993C88.7053 4.63107 89.2801 4.33676 89.4443 3.80261C89.6085 3.26846 89.3209 2.69569 88.7873 2.52456C60.013 -6.61655 28.1192 10.5933 12.2338 29.671C7.84175 34.969 2.09543 43.813 0.453534 52.9634C-0.654746 59.2175 0.124995 65.6107 4.39393 71.1721C10.0174 78.4632 17.6934 79.8912 23.3579 81.3839C48.2327 87.9526 80.3726 73.7692 94.1234 52.0228C103.359 37.4292 98.9262 22.5641 85.4626 12.9921C81.3579 10.0498 77.1709 7.5071 71.9578 7.24206C71.3832 7.2132 70.8908 7.6445 70.8908 8.20467C70.8497 8.76483 71.3012 9.24288 71.8348 9.27174Z" fill="#F2994A"/>
</svg>
