<svg width="186" height="26" viewBox="0 0 186 26" fill="none" xmlns="http://www.w3.org/2000/svg">
<path fill-rule="evenodd" clip-rule="evenodd" d="M49.5753 15.3113C41.5843 17.6609 32.3582 19.9992 23.4828 20.583C15.8967 21.0814 8.56927 20.3074 2.57166 17.0141C1.72621 16.5504 0.66748 16.8692 0.210254 17.7273C-0.247669 18.5847 0.0673678 19.6585 0.912818 20.1229C7.45547 23.7144 15.4332 24.6538 23.7079 24.1095C32.743 23.5158 42.1356 21.1619 50.287 18.7784C51.2328 20.7215 53.1913 22.5332 56.6414 23.8699C61.9407 25.9233 69.1761 25.8978 76.7984 24.7407C87.8534 23.0634 99.7454 19.0633 107.391 16.221C107.705 16.1051 108.172 15.9206 108.744 15.6775C108.918 16.0677 109.113 16.4522 109.329 16.8296C111.204 20.1193 114.522 22.7792 117.902 23.7292C139.342 29.753 164.364 22.5353 184.737 16.6614C185.657 16.3949 186.193 15.4167 185.935 14.4787C185.67 13.5407 184.709 12.9957 183.782 13.2622C163.98 18.9721 139.669 26.1763 118.829 20.3229C116.264 19.6019 113.769 17.5577 112.347 15.0611C112.187 14.7826 112.047 14.4977 111.915 14.2086C114.724 12.797 118.028 10.8292 119.805 8.72274C121.631 6.56331 122.084 4.25826 120.495 2.08115C119.129 0.220007 117.059 0.0616687 114.905 1.02652C112.584 2.05994 110.193 4.47593 109.42 5.60972C107.97 7.72746 107.51 10.0248 107.775 12.2648C107.092 12.5574 106.537 12.7751 106.195 12.9023C98.716 15.6817 87.0923 19.6048 76.2826 21.2454C69.3274 22.3014 62.7206 22.442 57.8849 20.5689C55.8225 19.7694 54.4598 18.8364 53.7203 17.7535C55.1798 17.311 56.5871 16.8756 57.9316 16.46C60.5906 15.6379 66.1268 14.2772 70.0822 11.852C73.2277 9.92369 75.3605 7.30055 75.2365 4.01227C75.173 2.32289 74.2091 1.19544 72.675 0.563514C70.3826 -0.380136 66.4181 0.0764822 64.9419 0.394566C60.4644 1.3573 54.4884 5.34256 51.5318 9.8332C50.3518 11.6251 49.6499 13.4996 49.5753 15.3113ZM53.2533 14.2072C54.5184 13.8213 55.7409 13.4424 56.9153 13.0791C59.3973 12.3114 64.5857 11.0921 68.2791 8.82732C70.2348 7.6285 71.8316 6.19219 71.7543 4.14727C71.748 3.98822 71.5926 3.943 71.4553 3.87797C71.2427 3.7783 70.9994 3.70972 70.7401 3.656C68.9858 3.29267 66.6293 3.64397 65.6647 3.85178C61.9079 4.65971 56.9104 8.02788 54.4299 11.7961C53.9057 12.592 53.4882 13.4028 53.2533 14.2072ZM111.218 10.6376C112.856 9.78301 114.57 8.74958 115.923 7.62497C116.64 7.02768 117.247 6.41345 117.63 5.77587C117.951 5.24856 118.076 4.70849 117.693 4.18683C117.54 3.97548 117.31 3.97126 117.073 4.01085C116.822 4.05326 116.564 4.14371 116.306 4.26034C114.605 5.0195 112.849 6.79301 112.284 7.62497C111.622 8.58983 111.295 9.61054 111.218 10.6376Z" fill="#F2994A"/>
</svg>
