<svg width="392" height="411" viewBox="0 0 392 411" fill="none" xmlns="http://www.w3.org/2000/svg">
<path d="M204.994 208.823C205.946 217.438 207.049 226.931 207.832 233.576C219.333 224.147 224.582 204.132 226.56 187.939C220.254 194.799 213.103 201.76 204.994 208.823Z" fill="#F2C94C"/>
<path d="M205.054 147.064C195.612 148.998 183.685 156.22 177.225 175.209C180.971 177.166 186.273 179.958 191.113 182.42C195.915 169.056 200.564 157.346 205.054 147.064Z" fill="#F2994A"/>
<path opacity="0.2" d="M180.586 213.785C227.629 66.6234 261.438 72.9701 274.369 75.1046C274.373 97.6938 274.844 156.732 186.121 224.328L180.586 213.785Z" fill="url(#paint0_linear_47_6997)"/>
<path opacity="0.1" d="M194.855 212.627C241.881 65.492 275.68 71.7953 288.638 73.9466C288.641 96.5358 289.112 155.574 200.389 223.17L194.855 212.627Z" fill="url(#paint1_linear_47_6997)"/>
<path opacity="0.15" d="M186.121 224.328C274.844 156.732 274.373 97.6937 274.37 75.1045L183.372 219.087L186.121 224.328Z" fill="url(#paint2_linear_47_6997)"/>
<path opacity="0.1" d="M256.021 125.79C251.157 133.487 244.35 134.254 240.806 127.505C237.263 120.755 238.35 109.031 243.215 101.334C248.08 93.6365 254.886 92.8694 258.43 99.619C261.974 106.369 260.886 118.093 256.021 125.79Z" fill="white"/>
<path opacity="0.1" d="M171.498 255.116C171.576 249.873 173.49 244.373 175.166 239.544C177.087 233.974 178.739 229.241 177.004 226.691C175.025 223.763 171.883 226.026 167.496 229.143C164.921 230.982 161.874 233.156 158.42 234.737C157.796 231.547 156.846 228.636 155.504 226.111C149.923 215.465 139.812 215.224 131.452 224.626C130.829 222.965 130.155 221.384 129.387 219.892C120.427 202.824 103.16 204.844 90.7708 224.447C78.3988 244.022 75.6187 273.723 84.5519 290.774C93.2379 307.334 109.795 305.908 122.064 287.907C121.612 294.33 122.498 300.519 124.918 305.104C125.548 306.285 126.235 307.316 126.97 308.153C124.819 323.678 126.412 339.221 132.194 350.255C142.644 370.202 162.811 367.89 177.246 345.108C191.655 322.31 194.869 287.628 184.419 267.68C180.958 261.095 176.488 256.928 171.498 255.116Z" fill="url(#paint3_linear_47_6997)"/>
<path opacity="0.3" d="M253.155 184.695L298.78 271.786L275.056 309.384L233.459 229.981L225.795 228.045L253.155 184.695Z" fill="url(#paint4_linear_47_6997)"/>
<path d="M273.692 265.174L280.139 254.974L297.366 287.852L290.919 298.052L273.692 265.174Z" fill="#F2C94C"/>
<path opacity="0.1" d="M259.11 216.226L269.111 235.294L267.024 238.597L257.022 219.529L259.11 216.226Z" fill="white"/>
<path opacity="0.1" d="M254.962 222.848L272.993 257.278L270.906 260.581L252.874 226.151L254.962 222.848Z" fill="white"/>
<path opacity="0.15" d="M250.787 229.453L274.126 274.021L272.038 277.323L248.7 232.756L250.787 229.453Z" fill="white"/>
<path d="M254.472 214.972C252.52 218.062 249.76 218.368 248.327 215.635C246.893 212.903 247.315 208.175 249.267 205.086C251.22 201.996 253.979 201.69 255.413 204.423C256.874 207.172 256.425 211.883 254.472 214.972Z" fill="#F2C94C"/>
<path opacity="0.3" d="M224.653 92.3981L179.011 5.33301L155.287 42.9301L196.9 122.306L197.293 135.748L224.653 92.3981Z" fill="url(#paint5_linear_47_6997)"/>
<path d="M162.073 15.128L168.52 4.92725L185.747 37.8053L179.3 48.006L162.073 15.128Z" fill="#F2994A"/>
<path opacity="0.15" d="M207.134 79.1642L197.133 60.0962L195.046 63.3988L205.047 82.4668L207.134 79.1642Z" fill="white"/>
<path opacity="0.15" d="M202.96 85.7697L183.696 48.9951L181.608 52.2977L200.872 89.0723L202.96 85.7697Z" fill="white"/>
<path opacity="0.15" d="M198.785 92.3747L175.447 47.8071L173.36 51.1097L196.698 95.6773L198.785 92.3747Z" fill="white"/>
<path d="M207.428 87.2892C205.476 90.3787 205.054 95.1065 206.488 97.8391C207.922 100.572 210.681 100.266 212.634 97.1761C214.586 94.0866 215.008 89.3589 213.574 86.6263C212.124 83.9203 209.381 84.1997 207.428 87.2892Z" fill="#F2994A"/>
<path opacity="0.2" d="M189.736 126.462L162.472 74.4561L148.299 96.8817L175.563 148.888L189.736 126.462Z" fill="url(#paint6_linear_47_6997)"/>
<path opacity="0.15" d="M166.05 93.1548L175.385 110.982L173.685 113.672L164.35 95.8448L166.05 93.1548Z" fill="white"/>
<path opacity="0.15" d="M162.633 98.5615L180.097 131.888L178.381 134.604L160.916 101.278L162.633 98.5615Z" fill="white"/>
<path d="M163.286 92.5259C162.125 94.3636 160.48 94.554 159.613 92.925C158.746 91.2961 159.003 88.4769 160.181 86.6125C161.343 84.7748 162.988 84.5844 163.855 86.2133C164.678 87.8521 164.448 90.6882 163.286 92.5259Z" fill="#F2994A"/>
<path opacity="0.2" d="M306.637 224.049L279.373 172.043L265.199 194.469L292.447 246.501L306.637 224.049Z" fill="url(#paint7_linear_47_6997)"/>
<path opacity="0.15" d="M282.934 190.769L292.269 208.596L290.569 211.286L281.234 193.459L282.934 190.769Z" fill="white"/>
<path opacity="0.15" d="M279.544 196.192L297.008 229.518L295.291 232.235L277.827 198.909L279.544 196.192Z" fill="white"/>
<path d="M280.17 190.14C279.009 191.977 277.364 192.168 276.497 190.539C275.63 188.91 275.887 186.091 277.065 184.226C278.226 182.389 279.871 182.198 280.739 183.827C281.589 185.483 281.332 188.302 280.17 190.14Z" fill="#F2C94C"/>
<defs>
<linearGradient id="paint0_linear_47_6997" x1="309.828" y1="103.786" x2="136.393" y2="194.677" gradientUnits="userSpaceOnUse">
<stop stop-color="white"/>
<stop offset="1" stop-color="white" stop-opacity="0"/>
</linearGradient>
<linearGradient id="paint1_linear_47_6997" x1="324.093" y1="102.629" x2="150.657" y2="193.519" gradientUnits="userSpaceOnUse">
<stop stop-color="white"/>
<stop offset="1" stop-color="white" stop-opacity="0"/>
</linearGradient>
<linearGradient id="paint2_linear_47_6997" x1="274.656" y1="125.328" x2="137.864" y2="200.084" gradientUnits="userSpaceOnUse">
<stop stop-color="white" stop-opacity="0"/>
<stop offset="1" stop-color="white"/>
</linearGradient>
<linearGradient id="paint3_linear_47_6997" x1="180.731" y1="260.66" x2="105.82" y2="299.918" gradientUnits="userSpaceOnUse">
<stop stop-color="white"/>
<stop offset="1" stop-color="white" stop-opacity="0"/>
</linearGradient>
<linearGradient id="paint4_linear_47_6997" x1="283.294" y1="205.446" x2="244.857" y2="286.949" gradientUnits="userSpaceOnUse">
<stop stop-color="white"/>
<stop offset="1" stop-color="white" stop-opacity="0"/>
</linearGradient>
<linearGradient id="paint5_linear_47_6997" x1="218.476" y1="67.4356" x2="162.896" y2="72.987" gradientUnits="userSpaceOnUse">
<stop stop-color="white"/>
<stop offset="1" stop-color="white" stop-opacity="0"/>
</linearGradient>
<linearGradient id="paint6_linear_47_6997" x1="179.182" y1="106.309" x2="158.837" y2="116.972" gradientUnits="userSpaceOnUse">
<stop stop-color="white"/>
<stop offset="1" stop-color="white" stop-opacity="0"/>
</linearGradient>
<linearGradient id="paint7_linear_47_6997" x1="296.086" y1="203.927" x2="275.741" y2="214.589" gradientUnits="userSpaceOnUse">
<stop stop-color="white"/>
<stop offset="1" stop-color="white" stop-opacity="0"/>
</linearGradient>
</defs>
</svg>
