<svg width="218" height="63" viewBox="0 0 218 63" fill="none" xmlns="http://www.w3.org/2000/svg">
<g clip-path="url(#clip0_13_39)">
<path d="M35.8249 4.9206e-06C29.5849 -0.00348088 23.4841 1.84513 18.2941 5.31202C13.1041 8.77891 9.058 13.7083 6.66766 19.4768C4.27732 25.2452 3.65009 31.5935 4.86531 37.7188C6.08053 43.844 9.0836 49.471 13.4947 53.888C17.9058 58.3049 23.5267 61.3135 29.6465 62.5331C35.7663 63.7527 42.11 63.1285 47.8753 60.7395C53.6406 58.3505 58.5685 54.3041 62.0356 49.112C65.5027 43.9198 67.3533 37.8153 67.3533 31.5705C67.3533 23.2005 64.0321 15.1731 58.1199 9.25302C52.2077 3.33291 44.1884 0.00467696 35.8249 4.9206e-06ZM35.8249 59.4755C30.3066 59.4755 24.9122 57.8379 20.3239 54.7697C15.7356 51.7015 12.1595 47.3406 10.0477 42.2384C7.93599 37.1362 7.38346 31.5219 8.46002 26.1054C9.53659 20.689 12.1939 15.7136 16.0959 11.8086C19.9979 7.90352 24.9694 5.24414 30.3817 4.16674C35.7939 3.08934 41.4039 3.6423 46.5021 5.7557C51.6004 7.8691 55.9579 11.448 59.0237 16.0399C62.0895 20.6317 63.7259 26.0303 63.7259 31.5529C63.7259 38.9584 60.7863 46.0607 55.5539 51.2972C50.3214 56.5337 43.2247 59.4755 35.8249 59.4755Z" fill="#FBFBFB"/>
<path d="M35.9481 17.0673C19.8098 17.0673 6.68689 27.2574 6.68689 39.8266C6.68689 52.3957 19.8098 62.5815 35.9481 62.5815C52.0865 62.5815 65.205 52.3957 65.205 39.8266C65.205 27.2574 52.1041 17.0673 35.9481 17.0673ZM35.9481 59.9513C21.6543 59.9513 10.0678 50.9419 10.0678 39.8266C10.0678 28.7112 21.6543 19.6974 35.9481 19.6974C50.242 19.6974 61.8241 28.7112 61.8241 39.8266C61.8241 50.9419 50.2376 59.9513 35.9481 59.9513Z" fill="#FBFBFB"/>
<path d="M36.0978 33.4825C16.3937 33.4825 0 41.4699 0 49.1797C0 56.8895 15.9711 63.141 35.6576 63.141C55.3441 63.141 71.3152 56.8895 71.3152 49.1797C71.3152 41.4699 55.7887 33.4825 36.0978 33.4825ZM35.6576 61.5418C18.2382 61.5418 4.11163 56.0128 4.11163 49.2061C4.11163 42.3995 18.2382 36.8704 35.6576 36.8704C53.077 36.8704 67.2036 42.3995 67.2036 49.2061C67.2036 56.0128 53.0902 61.5286 35.6576 61.5286V61.5418Z" fill="white" fill-opacity="0.61"/>
<path d="M35.8249 59.9689C40.2035 59.9689 43.7532 56.4165 43.7532 52.0345C43.7532 47.6524 40.2035 44.1 35.8249 44.1C31.4462 44.1 27.8965 47.6524 27.8965 52.0345C27.8965 56.4165 31.4462 59.9689 35.8249 59.9689Z" fill="#FBFBFB"/>
</g>
<path d="M115.912 36.744C117.232 38.232 119.272 39.288 122.056 39.288C126.376 39.288 127.96 36.912 127.96 34.584C127.96 31.224 124.984 30.408 122.368 29.712C120.328 29.16 118.48 28.68 118.48 27.072C118.48 25.56 119.848 24.528 121.768 24.528C123.52 24.528 125.2 25.128 126.4 26.448L127.6 24.984C126.256 23.568 124.36 22.752 121.912 22.752C118.768 22.752 116.416 24.552 116.416 27.192C116.416 30.336 119.272 31.056 121.84 31.728C123.952 32.304 125.896 32.832 125.896 34.752C125.896 35.976 124.984 37.512 122.128 37.512C119.872 37.512 118.144 36.408 117.088 35.232L115.912 36.744ZM132.663 37.248C133.599 38.544 134.991 39.288 136.575 39.288C139.623 39.288 141.734 36.936 141.734 33.192C141.734 29.424 139.623 27.12 136.575 27.12C134.943 27.12 133.503 27.96 132.663 29.136V27.408H130.863V43.416H132.663V37.248ZM139.839 33.192C139.839 35.76 138.447 37.68 136.118 37.68C134.703 37.68 133.287 36.816 132.663 35.808V30.576C133.287 29.568 134.703 28.728 136.118 28.728C138.447 28.728 139.839 30.624 139.839 33.192ZM153.692 39V31.032C153.692 28.224 151.652 27.12 149.204 27.12C147.308 27.12 145.82 27.744 144.572 29.04L145.412 30.288C146.444 29.184 147.572 28.68 148.964 28.68C150.644 28.68 151.892 29.568 151.892 31.128V33.216C150.956 32.136 149.636 31.632 148.052 31.632C146.084 31.632 143.996 32.856 143.996 35.448C143.996 37.968 146.084 39.288 148.052 39.288C149.612 39.288 150.932 38.736 151.892 37.68V39H153.692ZM151.892 36.552C151.196 37.512 149.972 37.992 148.7 37.992C147.02 37.992 145.844 36.936 145.844 35.472C145.844 33.984 147.02 32.928 148.7 32.928C149.972 32.928 151.196 33.408 151.892 34.368V36.552ZM156.628 33.192C156.628 36.648 158.956 39.288 162.412 39.288C164.524 39.288 165.772 38.424 166.66 37.272L165.46 36.168C164.692 37.2 163.708 37.68 162.508 37.68C160.036 37.68 158.5 35.76 158.5 33.192C158.5 30.624 160.036 28.728 162.508 28.728C163.708 28.728 164.692 29.184 165.46 30.24L166.66 29.136C165.772 27.984 164.524 27.12 162.412 27.12C158.956 27.12 156.628 29.76 156.628 33.192ZM168.511 33.192C168.511 36.816 170.983 39.288 174.415 39.288C176.311 39.288 177.871 38.664 179.023 37.512L178.159 36.336C177.247 37.272 175.903 37.8 174.583 37.8C172.087 37.8 170.551 35.976 170.407 33.792H179.791V33.336C179.791 29.856 177.727 27.12 174.223 27.12C170.911 27.12 168.511 29.832 168.511 33.192ZM174.199 28.608C176.839 28.608 177.991 30.744 178.015 32.472H170.407C170.503 30.696 171.727 28.608 174.199 28.608ZM181.698 37.464C182.874 38.712 184.482 39.288 186.378 39.288C189.378 39.288 190.938 37.728 190.938 35.784C190.938 33.216 188.61 32.64 186.594 32.184C185.082 31.824 183.762 31.464 183.762 30.336C183.762 29.304 184.746 28.584 186.33 28.584C187.818 28.584 189.09 29.208 189.786 30.048L190.626 28.8C189.69 27.864 188.298 27.12 186.33 27.12C183.57 27.12 182.01 28.656 182.01 30.456C182.01 32.856 184.242 33.384 186.21 33.84C187.77 34.224 189.186 34.632 189.186 35.904C189.186 37.032 188.226 37.824 186.45 37.824C184.866 37.824 183.402 37.056 182.634 36.168L181.698 37.464ZM193.191 33.192C193.191 36.816 195.663 39.288 199.095 39.288C200.991 39.288 202.551 38.664 203.703 37.512L202.839 36.336C201.927 37.272 200.583 37.8 199.263 37.8C196.767 37.8 195.23 35.976 195.087 33.792H204.471V33.336C204.471 29.856 202.407 27.12 198.903 27.12C195.59 27.12 193.191 29.832 193.191 33.192ZM198.879 28.608C201.519 28.608 202.671 30.744 202.695 32.472H195.087C195.183 30.696 196.407 28.608 198.879 28.608ZM206.714 33.192C206.714 36.648 209.042 39.288 212.498 39.288C214.61 39.288 215.858 38.424 216.746 37.272L215.546 36.168C214.778 37.2 213.794 37.68 212.594 37.68C210.122 37.68 208.586 35.76 208.586 33.192C208.586 30.624 210.122 28.728 212.594 28.728C213.794 28.728 214.778 29.184 215.546 30.24L216.746 29.136C215.858 27.984 214.61 27.12 212.498 27.12C209.042 27.12 206.714 29.76 206.714 33.192Z" fill="white"/>
<defs>
<clipPath id="clip0_13_39">
<rect width="81" height="63" fill="white"/>
</clipPath>
</defs>
</svg>
