<svg width="81" height="63" viewBox="0 0 81 63" fill="none" xmlns="http://www.w3.org/2000/svg">
<g clip-path="url(#clip0_47_4193)">
<path d="M35.8249 4.9206e-06C29.5849 -0.00348088 23.4841 1.84513 18.2941 5.31202C13.1041 8.77891 9.058 13.7083 6.66766 19.4768C4.27732 25.2452 3.65009 31.5935 4.86531 37.7188C6.08053 43.844 9.0836 49.471 13.4947 53.888C17.9058 58.3049 23.5267 61.3135 29.6465 62.5331C35.7663 63.7527 42.11 63.1285 47.8753 60.7395C53.6406 58.3505 58.5685 54.3041 62.0356 49.112C65.5027 43.9198 67.3533 37.8153 67.3533 31.5705C67.3533 23.2005 64.0321 15.1731 58.1199 9.25302C52.2077 3.33291 44.1884 0.00467696 35.8249 4.9206e-06ZM35.8249 59.4755C30.3066 59.4755 24.9122 57.8379 20.3239 54.7697C15.7356 51.7015 12.1595 47.3406 10.0477 42.2384C7.93599 37.1362 7.38346 31.5219 8.46002 26.1054C9.53659 20.689 12.1939 15.7136 16.0959 11.8086C19.9979 7.90352 24.9694 5.24414 30.3817 4.16674C35.7939 3.08934 41.4039 3.6423 46.5021 5.7557C51.6004 7.8691 55.9579 11.448 59.0237 16.0399C62.0895 20.6317 63.7259 26.0303 63.7259 31.5529C63.7259 38.9584 60.7863 46.0607 55.5539 51.2972C50.3214 56.5337 43.2247 59.4755 35.8249 59.4755Z" fill="#FBFBFB"/>
<path d="M35.9481 17.0673C19.8098 17.0673 6.68689 27.2574 6.68689 39.8266C6.68689 52.3957 19.8098 62.5815 35.9481 62.5815C52.0865 62.5815 65.205 52.3957 65.205 39.8266C65.205 27.2574 52.1041 17.0673 35.9481 17.0673ZM35.9481 59.9513C21.6543 59.9513 10.0678 50.9419 10.0678 39.8266C10.0678 28.7112 21.6543 19.6974 35.9481 19.6974C50.242 19.6974 61.8241 28.7112 61.8241 39.8266C61.8241 50.9419 50.2376 59.9513 35.9481 59.9513Z" fill="#FBFBFB"/>
<path d="M36.0978 33.4825C16.3937 33.4825 0 41.4699 0 49.1797C0 56.8895 15.9711 63.141 35.6576 63.141C55.3441 63.141 71.3152 56.8895 71.3152 49.1797C71.3152 41.4699 55.7887 33.4825 36.0978 33.4825ZM35.6576 61.5418C18.2382 61.5418 4.11163 56.0128 4.11163 49.2061C4.11163 42.3995 18.2382 36.8704 35.6576 36.8704C53.077 36.8704 67.2036 42.3995 67.2036 49.2061C67.2036 56.0128 53.0902 61.5286 35.6576 61.5286V61.5418Z" fill="white" fill-opacity="0.61"/>
<path d="M35.8249 59.9689C40.2035 59.9689 43.7532 56.4165 43.7532 52.0345C43.7532 47.6524 40.2035 44.1 35.8249 44.1C31.4462 44.1 27.8965 47.6524 27.8965 52.0345C27.8965 56.4165 31.4462 59.9689 35.8249 59.9689Z" fill="#FBFBFB"/>
</g>
<defs>
<clipPath id="clip0_47_4193">
<rect width="81" height="63" fill="white"/>
</clipPath>
</defs>
</svg>
