<svg width="45" height="45" viewBox="0 0 45 45" fill="none" xmlns="http://www.w3.org/2000/svg">
<path fill-rule="evenodd" clip-rule="evenodd" d="M10.3693 24.9916C10.1987 24.8241 10.0268 24.6566 9.85367 24.4903C8.08867 22.7984 6.33742 21.1047 4.69429 19.2903C4.29617 18.8509 3.54867 17.9984 2.79805 17.5597C2.26117 17.2459 1.70552 17.1147 1.1974 17.1797C0.873649 17.221 0.400544 17.3841 0.163044 18.0047C0.123044 18.1091 0.075555 18.2884 0.056805 18.5172C0.026805 18.8872 0.0561656 19.5509 0.0655406 19.6428C0.196791 20.9816 0.328036 22.2616 0.568661 23.586C0.789911 24.8047 0.941155 26.0328 1.17928 27.2497C1.53553 29.0703 1.99429 30.8228 2.66304 32.5566C2.91117 33.2003 3.63554 33.5209 4.27929 33.2728C4.92242 33.0247 5.24367 32.301 4.99554 31.6572C4.37992 30.0603 3.96055 28.4466 3.63305 26.7697C3.3968 25.5641 3.24741 24.3466 3.02803 23.1391C2.88553 22.3534 2.78428 21.5841 2.69803 20.8078L2.84115 20.9684C4.52428 22.8265 6.31617 24.5622 8.12367 26.2947C8.79992 26.9434 9.45305 27.611 10.1399 28.2491C10.1956 28.3303 10.4524 28.7028 10.5787 28.8303C10.7887 29.0428 11.0155 29.1615 11.213 29.2203C11.7149 29.3703 12.2243 29.3147 12.6693 28.7522C13.0024 28.3309 13.1943 27.6778 13.1799 26.8978C13.1605 25.8259 12.7537 24.4128 12.6674 23.7616C12.1212 19.641 11.2374 15.5366 11.0024 11.3803C10.9637 10.6916 10.373 10.1641 9.6843 10.2028C8.99555 10.2422 8.4674 10.8328 8.50678 11.5216C8.7449 15.7403 9.6343 19.9072 10.1887 24.0903C10.2187 24.3128 10.2899 24.6297 10.3693 24.9916Z" fill="#F2994A"/>
<path fill-rule="evenodd" clip-rule="evenodd" d="M21.2916 7.91076C19.8741 8.28638 18.4541 8.61387 17.3153 9.58762C16.1241 10.607 15.5184 12.0876 15.3028 13.7376C15.0278 15.8426 15.3966 18.2307 15.6253 19.9326C15.7441 20.8139 15.7947 22.042 16.0516 23.1301C16.2728 24.0658 16.6497 24.9039 17.2241 25.4908C18.1266 26.4126 19.5115 26.5057 20.9322 25.9307C22.5734 25.2664 24.2078 23.7332 24.6522 22.8395C24.9597 22.222 24.7078 21.4708 24.0897 21.1639C23.4722 20.8564 22.7216 21.1083 22.4141 21.7258C22.1322 22.2926 21.0353 23.192 19.9941 23.6139C19.7616 23.7076 19.5315 23.7776 19.314 23.7951C19.2009 23.8045 19.0878 23.8208 19.0109 23.7426C18.6341 23.357 18.5016 22.7301 18.3922 22.097C18.2391 21.2145 18.1965 20.2926 18.1034 19.5989C17.8984 18.077 17.5359 15.9439 17.7816 14.0614C17.9134 13.052 18.2116 12.1114 18.9409 11.4876C19.7872 10.7639 20.8772 10.607 21.9315 10.3276C22.5984 10.1514 22.9966 9.46638 22.8197 8.79951C22.6434 8.13263 21.9584 7.73451 21.2916 7.91076Z" fill="#F2994A"/>
<path fill-rule="evenodd" clip-rule="evenodd" d="M21.1957 14.4974C20.0976 15.0955 18.9238 15.7105 17.7469 16.133C17.0976 16.3661 16.7594 17.0824 16.9919 17.7318C17.2251 18.3812 17.9413 18.7193 18.5907 18.4861C19.8869 18.0211 21.1825 17.3518 22.3913 16.6936C22.9969 16.3636 23.2213 15.6036 22.8913 14.998C22.5613 14.3918 21.8019 14.168 21.1957 14.4974Z" fill="#F2994A"/>
<path fill-rule="evenodd" clip-rule="evenodd" d="M36.2922 15.1609C35.3797 14.0572 34.4153 12.9709 33.3965 11.9784C33.3134 11.8978 32.2859 11.0516 31.6753 10.7353C31.2634 10.5222 30.8984 10.4834 30.6847 10.5041C30.0628 10.5641 29.6834 10.9009 29.5278 11.4772C29.379 12.0297 29.3253 12.6053 29.3253 13.1928C28.4009 11.4597 27.5553 9.67719 27.0416 7.80031C26.9991 7.64531 26.9647 7.5728 26.959 7.55968C26.7859 7.17718 26.5403 7.04716 26.4528 6.9959C26.0228 6.74341 25.6353 6.78593 25.3084 6.93281C25.2684 6.95031 24.3872 7.34155 24.5978 8.34093C24.6147 8.42155 24.7584 8.99592 24.8003 9.22029C24.8372 9.41529 24.9172 9.59091 25.029 9.73966C25.8903 12.2134 27.2078 14.5503 28.4722 16.8322C28.7453 17.3253 28.9584 17.8334 29.0991 18.379C29.1403 18.5384 29.1572 18.899 29.1934 19.0759C29.2553 19.3753 29.3778 19.5759 29.4559 19.6784C29.8622 20.2121 30.3628 20.2666 30.8247 20.1297C31.0222 20.0716 31.4178 19.9384 31.6584 19.3653C32.1997 18.0778 32.1384 16.6559 31.9816 15.2234C31.9353 14.7997 31.8778 14.3759 31.8428 13.9572C32.9547 15.0622 33.9953 16.2809 34.9734 17.499C35.0809 17.6328 36.1697 18.8503 36.4591 19.0315C37.1828 19.4865 37.7447 19.1447 37.9853 18.9409C38.3522 18.6297 38.6409 18.0953 38.7584 17.4147C38.9097 16.5341 38.7903 15.3221 38.7784 14.8347C38.699 11.5534 38.5803 8.12343 37.8434 4.91968C37.689 4.24718 37.0178 3.82716 36.3453 3.98153C35.6728 4.13591 35.2528 4.8078 35.4072 5.47968C36.1066 8.52218 36.2034 11.7803 36.279 14.8953C36.2809 14.9672 36.2859 15.0572 36.2922 15.1609Z" fill="#F2994A"/>
<path fill-rule="evenodd" clip-rule="evenodd" d="M41.2869 4.08846C41.7401 6.27908 42.1938 8.44969 42.4901 10.7022C42.5801 11.3866 43.2082 11.8691 43.8925 11.7791C44.5763 11.6891 45.0588 11.0609 44.9688 10.3766C44.5513 7.19969 43.8288 4.18346 43.2238 1.04971C42.9907 -0.161541 41.8394 0.00785126 41.7688 0.0203513C41.6132 0.0478513 40.7651 0.228474 40.7369 1.2216C40.7351 1.28222 40.7757 1.71094 40.7826 1.87719C40.7976 2.25782 40.79 2.62971 40.7707 3.01096C40.7482 3.45033 40.9551 3.84846 41.2869 4.08846Z" fill="#F2994A"/>
<path fill-rule="evenodd" clip-rule="evenodd" d="M44.522 17.0064C44.6489 16.6202 44.5845 16.179 44.312 15.8371C43.8814 15.2977 43.0945 15.2096 42.5551 15.6402C42.057 16.0377 41.9639 16.5221 42.0307 17.1146C42.1082 17.8002 42.7282 18.2939 43.4139 18.2158C44.0407 18.1452 44.507 17.6202 44.522 17.0064Z" fill="#F2994A"/>
<path fill-rule="evenodd" clip-rule="evenodd" d="M20.9251 41.119C20.7976 40.849 20.6952 40.6358 20.6708 40.5902C19.5095 38.4183 18.2495 36.2752 16.8776 34.2296C16.4933 33.6565 15.7164 33.5033 15.1433 33.8877C14.5702 34.2721 14.417 35.049 14.8014 35.6221C16.127 37.5983 17.3439 39.6702 18.4664 41.769C18.552 41.929 19.1226 43.3508 19.5301 43.944C19.8995 44.4808 20.3633 44.6727 20.6289 44.7121C21.0508 44.7746 21.7108 44.6233 22.2464 43.9083C22.9458 42.9752 23.8526 40.4821 24.002 40.0684C24.2758 39.3071 24.5076 38.5083 24.7226 37.7315C25.1301 36.2577 25.3645 34.7577 25.5739 33.2465C25.6689 32.5627 25.1908 31.9315 24.507 31.8365C23.8239 31.7421 23.192 32.2202 23.0977 32.9034C22.9033 34.3052 22.6914 35.6977 22.3133 37.0646C22.1145 37.7815 21.902 38.5196 21.6495 39.2221C21.5733 39.4327 21.277 40.3027 20.9251 41.119Z" fill="#F2994A"/>
</svg>
